<svg width="330" height="166" viewBox="0 0 330 166" fill="none" xmlns="http://www.w3.org/2000/svg">
    <path d="M0 146.309V44.605L22.8394 48.8996V151.677L0 146.309ZM20.5945 128.447L19.3256 95.652L54.5608 54.951L79.9379 59.7337L44.9956 101.313L32.0142 115.563L20.5945 128.447ZM54.8536 159.192L28.11 110.39L43.2387 93.2119L81.7924 165.439L54.8536 159.192Z" fill="#071E57"/>
    <path d="M89.2107 164.073V60.0266L107.658 53.3896L151.677 109.024L142.893 111.854L142.405 40.8962L164.268 32.9902L165.244 140.55L146.602 146.309L102.29 90.1863L110.976 87.1606L111.172 157.045L89.2107 164.073Z" fill="#071E57"/>
    <path d="M0.975586 34.0639L102.289 0L143.38 10.0532C154.117 12.6885 159.582 15.4215 159.875 18.1544C160.168 20.8873 156.459 23.425 148.748 25.7675C143.575 27.3292 137.914 28.4028 131.863 29.1836C125.714 29.8669 119.565 30.1597 113.416 29.9645C107.169 29.7693 101.41 29.0861 95.9445 27.9148L105.119 26.2556C110.78 27.5244 114.587 28.8908 116.734 30.5501C118.882 32.1118 118.979 33.7711 117.222 35.5279C115.465 37.2848 111.659 38.9441 105.9 40.7009C97.2134 43.2387 87.6481 44.7028 77.0093 45.0932C66.3704 45.4836 55.634 44.6051 44.6047 42.5555L0.975586 34.0639ZM44.3119 31.7214L63.5399 35.6256C67.5417 36.4064 71.4459 36.7968 75.1548 36.6992C78.8638 36.6016 82.4751 36.016 85.8913 34.9423C89.3074 33.8687 90.9667 32.8926 90.5763 31.9165C90.2835 30.9405 88.0386 30.0621 84.0368 29.1836L63.1495 24.7915L82.9632 18.3496L100.337 22.2538C104.241 23.1322 107.852 23.5226 111.464 23.425C114.977 23.3274 118.393 22.8394 121.614 21.8633C124.933 20.7897 126.495 19.8137 126.202 18.8376C125.909 17.8616 123.762 16.9832 119.955 16.1047L104.241 12.3957L44.3119 31.7214Z" fill="#071E57"/>
    <path d="M191.695 60.5147V33.1855H194.623V60.5147H191.695ZM194.233 53.6824L194.135 50.1687L210.728 33.1855H214.046L201.943 45.8741L200.284 47.6309L194.233 53.6824ZM211.313 60.5147L199.503 46.9477L201.455 44.8004L214.729 60.5147H211.313Z" fill="#071E57"/>
    <path d="M227.613 60.7101C225.466 60.7101 223.611 60.222 221.952 59.3436C220.293 58.4652 219.121 57.1963 218.145 55.6346C217.267 54.0729 216.779 52.2185 216.779 50.2664C216.779 48.2167 217.169 46.4598 218.048 44.8981C218.926 43.3365 220.097 42.0676 221.659 41.1892C223.221 40.3108 224.88 39.8228 226.832 39.8228C228.784 39.8228 230.443 40.2131 232.005 41.0916C233.567 41.97 234.64 43.1412 235.519 44.8005C236.397 46.3622 236.788 48.2167 236.788 50.2664C236.788 50.364 236.788 50.5592 236.788 50.6568C236.788 50.7544 236.788 50.9496 236.788 51.1448H218.926V49.0951H235.324L234.25 49.876C234.25 48.4119 233.957 47.0454 233.274 45.8742C232.591 44.7029 231.81 43.8245 230.639 43.1413C229.565 42.458 228.296 42.1652 226.832 42.1652C225.466 42.1652 224.197 42.458 223.025 43.1413C221.952 43.8245 221.073 44.7029 220.39 45.8742C219.707 47.0454 219.414 48.4119 219.414 49.876V50.2664C219.414 51.8281 219.805 53.1945 220.488 54.3658C221.171 55.537 222.147 56.513 223.416 57.0987C224.685 57.7819 226.051 58.0747 227.613 58.0747C228.882 58.0747 230.053 57.8795 231.127 57.3915C232.2 56.9034 233.176 56.3178 233.957 55.3418L235.519 57.0987C234.64 58.1723 233.469 59.0508 232.103 59.6364C230.736 60.222 229.272 60.7101 227.613 60.7101Z" fill="#071E57"/>
    <path d="M242.644 68.2257C241.668 68.2257 240.79 68.0305 239.911 67.7377C239.033 67.4449 238.252 66.9569 237.666 66.3713L238.935 64.3215C239.423 64.8095 240.009 65.2 240.594 65.4928C241.18 65.7856 241.863 65.8832 242.644 65.8832C243.523 65.8832 244.303 65.5904 244.987 65.1024C245.67 64.6143 246.255 63.7359 246.841 62.4671L248.208 59.4413L248.5 59.0509L256.894 40.0181H259.627L249.379 62.955C248.793 64.3215 248.208 65.2975 247.524 66.0784C246.841 66.8592 246.06 67.4449 245.279 67.7377C244.499 68.1281 243.62 68.2257 242.644 68.2257ZM248.11 61.1006L238.642 40.0181H241.57L249.964 58.8557L248.11 61.1006Z" fill="#071E57"/>
    <path d="M191.695 101.996V74.667H203.505C206.531 74.667 208.873 75.2526 210.63 76.5214C212.289 77.6927 213.168 79.4496 213.168 81.6945C213.168 83.1586 212.777 84.4274 212.094 85.4034C211.411 86.3795 210.435 87.1603 209.264 87.7459C208.092 88.2339 206.823 88.5268 205.359 88.5268L206.043 87.5507C207.8 87.5507 209.264 87.8436 210.532 88.3316C211.801 88.8196 212.777 89.698 213.461 90.6741C214.144 91.6501 214.534 93.0166 214.534 94.5783C214.534 96.9208 213.656 98.6776 211.997 99.9465C210.337 101.215 207.702 101.899 204.286 101.899H191.695V101.996ZM194.623 99.556H204.286C206.726 99.556 208.483 99.1656 209.752 98.2872C211.02 97.5064 211.704 96.1399 211.704 94.383C211.704 92.6261 211.02 91.3573 209.752 90.4788C208.483 89.698 206.628 89.21 204.286 89.21H194.33V86.8675H203.31C205.457 86.8675 207.214 86.4771 208.385 85.5986C209.556 84.7202 210.24 83.549 210.24 81.8897C210.24 80.2304 209.654 78.9616 208.385 78.1808C207.116 77.3999 205.457 76.9118 203.31 76.9118H194.623V99.556Z" fill="#071E57"/>
    <path d="M226.345 102.191C224.783 102.191 223.514 101.898 222.343 101.41C221.172 100.922 220.391 100.239 219.708 99.263C219.122 98.3845 218.829 97.3109 218.829 96.1396C218.829 95.066 219.122 94.09 219.61 93.2115C220.098 92.3331 220.976 91.6499 222.148 91.0642C223.319 90.4786 224.881 90.2834 226.833 90.2834H233.86V92.3331H226.833C224.881 92.3331 223.514 92.7235 222.733 93.4067C221.952 94.09 221.562 94.9684 221.562 96.042C221.562 97.2133 222.05 98.1893 222.928 98.8725C223.807 99.5558 225.076 99.9462 226.735 99.9462C228.297 99.9462 229.663 99.5558 230.737 98.8725C231.908 98.1893 232.689 97.1157 233.177 95.7492L233.763 97.7013C233.275 99.0678 232.298 100.141 231.03 100.922C229.956 101.801 228.297 102.191 226.345 102.191ZM233.372 101.996V97.5061L233.275 96.7252V89.1121C233.275 87.3552 232.787 85.9888 231.81 85.1104C230.834 84.1343 229.37 83.7439 227.418 83.7439C226.052 83.7439 224.783 83.9391 223.612 84.4271C222.441 84.9152 221.367 85.5008 220.586 86.184L219.317 84.1343C220.391 83.2559 221.562 82.5726 223.026 82.0846C224.49 81.5966 226.052 81.4014 227.613 81.4014C230.249 81.4014 232.298 82.0846 233.763 83.3535C235.227 84.6224 235.91 86.672 235.91 89.3074V101.996H233.372Z" fill="#071E57"/>
    <path d="M249.087 102.191C247.427 102.191 245.768 101.996 244.304 101.508C242.84 101.02 241.571 100.434 240.79 99.6534L242.059 97.5061C242.938 98.0917 243.914 98.6773 245.28 99.1653C246.549 99.6534 247.915 99.8486 249.38 99.8486C251.332 99.8486 252.698 99.5558 253.576 98.9702C254.455 98.3845 254.845 97.5061 254.845 96.5301C254.845 95.7492 254.65 95.1636 254.162 94.7732C253.674 94.3828 253.088 93.9924 252.308 93.7971C251.527 93.6019 250.648 93.4068 249.672 93.2115C248.696 93.0163 247.72 92.9187 246.842 92.6259C245.866 92.4307 244.987 92.1379 244.206 91.7475C243.426 91.357 242.742 90.7714 242.352 90.0881C241.864 89.4049 241.669 88.4289 241.669 87.2577C241.669 86.184 241.962 85.1103 242.645 84.2319C243.23 83.3535 244.206 82.6702 245.378 82.1822C246.549 81.6942 248.111 81.4014 249.77 81.4014C251.136 81.4014 252.405 81.5966 253.772 81.8894C255.138 82.2798 256.212 82.6702 257.09 83.2559L255.919 85.5008C255.041 84.9152 254.064 84.4272 252.991 84.1343C251.917 83.8415 250.941 83.7439 249.867 83.7439C248.013 83.7439 246.647 84.0367 245.768 84.7199C244.89 85.4032 244.499 86.184 244.499 87.1601C244.499 87.9409 244.694 88.5265 245.183 89.0146C245.671 89.5026 246.256 89.7953 247.135 90.0881C248.013 90.381 248.794 90.5762 249.77 90.6738C250.746 90.869 251.624 91.0642 252.6 91.2594C253.576 91.4546 254.455 91.7475 255.236 92.1379C256.017 92.5283 256.7 93.0163 257.188 93.6995C257.676 94.3828 257.871 95.2612 257.871 96.4324C257.871 97.6037 257.578 98.6773 256.895 99.5558C256.212 100.434 255.236 101.117 253.967 101.605C252.405 101.898 250.941 102.191 249.087 102.191Z" fill="#071E57"/>
    <path d="M264.019 76.912C263.434 76.912 262.946 76.7168 262.555 76.3264C262.165 75.936 261.969 75.448 261.969 74.9599C261.969 74.4719 262.165 73.9839 262.555 73.5935C262.946 73.2031 263.434 73.0078 264.019 73.0078C264.605 73.0078 265.093 73.2031 265.483 73.5935C265.874 73.9839 266.069 74.3743 266.069 74.9599C266.069 75.5456 265.874 76.0336 265.483 76.424C265.093 76.8144 264.702 76.912 264.019 76.912ZM262.653 101.996V81.4994H265.386V101.996H262.653Z" fill="#071E57"/>
    <path d="M281.686 102.192C279.636 102.192 277.879 101.704 276.22 100.826C274.659 99.9471 273.39 98.6782 272.414 97.1165C271.535 95.5548 271.047 93.7004 271.047 91.7483C271.047 89.6986 271.535 87.8441 272.414 86.2824C273.292 84.7208 274.561 83.4519 276.22 82.5735C277.782 81.695 279.636 81.207 281.686 81.207C283.443 81.207 285.005 81.4998 286.371 82.1831C287.737 82.8663 288.909 83.8423 289.69 85.2088L287.64 86.5753C286.957 85.5016 286.078 84.7208 285.005 84.2327C283.931 83.7447 282.857 83.452 281.588 83.452C280.124 83.452 278.855 83.7448 277.684 84.428C276.513 85.1112 275.635 85.9897 274.951 87.2585C274.268 88.5274 273.975 89.8938 273.975 91.4555C273.975 93.1148 274.268 94.4812 274.951 95.6525C275.635 96.8237 276.513 97.7997 277.684 98.4829C278.855 99.1662 280.124 99.459 281.588 99.459C282.76 99.459 283.931 99.1662 285.005 98.6782C286.078 98.1902 286.957 97.4093 287.64 96.4333L289.69 97.7997C288.909 99.1662 287.737 100.142 286.371 100.826C285.005 101.509 283.443 102.192 281.686 102.192Z" fill="#071E57"/>
    <path d="M300.621 102.191C298.961 102.191 297.302 101.996 295.838 101.508C294.374 101.02 293.105 100.434 292.324 99.6534L293.593 97.5061C294.472 98.0917 295.448 98.6773 296.814 99.1653C298.083 99.6534 299.449 99.8486 300.913 99.8486C302.866 99.8486 304.232 99.5558 305.11 98.9702C305.989 98.3845 306.379 97.5061 306.379 96.5301C306.379 95.7492 306.184 95.1636 305.696 94.7732C305.208 94.3828 304.622 93.9924 303.842 93.7971C303.061 93.6019 302.182 93.4068 301.206 93.2115C300.23 93.0163 299.254 92.9187 298.376 92.6259C297.4 92.4307 296.521 92.1379 295.74 91.7475C294.96 91.357 294.276 90.7714 293.886 90.0881C293.398 89.4049 293.203 88.4289 293.203 87.2577C293.203 86.184 293.495 85.1103 294.179 84.2319C294.764 83.3535 295.74 82.6702 296.912 82.1822C298.083 81.6942 299.645 81.4014 301.304 81.4014C302.67 81.4014 303.939 81.5966 305.306 81.8894C306.672 82.2798 307.746 82.6702 308.624 83.2559L307.453 85.5008C306.574 84.9152 305.598 84.4272 304.525 84.1343C303.451 83.8415 302.475 83.7439 301.401 83.7439C299.547 83.7439 298.18 84.0367 297.302 84.7199C296.424 85.4032 296.033 86.184 296.033 87.1601C296.033 87.9409 296.228 88.5265 296.716 89.0146C297.204 89.5026 297.79 89.7953 298.669 90.0881C299.547 90.381 300.328 90.5762 301.304 90.6738C302.28 90.869 303.158 91.0642 304.134 91.2594C305.11 91.4546 305.989 91.7475 306.77 92.1379C307.551 92.5283 308.234 93.0163 308.722 93.6995C309.21 94.3828 309.405 95.2612 309.405 96.4324C309.405 97.6037 309.112 98.6773 308.429 99.5558C307.746 100.434 306.77 101.117 305.501 101.605C303.939 101.898 302.475 102.191 300.621 102.191Z" fill="#071E57"/>
    <path d="M191.695 141.818V114.489H194.037L212.875 138.207H211.606V114.489H214.437V141.818H212.094L193.257 118.101H194.525V141.818H191.695Z" fill="#071E57"/>
    <path d="M231.615 142.014C229.468 142.014 227.613 141.526 225.954 140.647C224.295 139.769 223.124 138.5 222.147 136.938C221.269 135.377 220.781 133.522 220.781 131.57C220.781 129.52 221.171 127.764 222.05 126.202C222.928 124.64 224.1 123.371 225.661 122.493C227.223 121.615 228.882 121.126 230.834 121.126C232.786 121.126 234.446 121.517 236.007 122.395C237.569 123.274 238.643 124.445 239.521 126.104C240.399 127.666 240.79 129.52 240.79 131.57C240.79 131.668 240.79 131.863 240.79 131.961C240.79 132.058 240.79 132.253 240.79 132.449H222.928V130.399H239.326L238.252 131.18C238.252 129.716 237.959 128.349 237.276 127.178C236.593 126.007 235.812 125.128 234.641 124.445C233.567 123.762 232.298 123.469 230.834 123.469C229.468 123.469 228.199 123.762 227.028 124.445C225.954 125.128 225.076 126.007 224.392 127.178C223.709 128.349 223.416 129.716 223.416 131.18V131.57C223.416 133.132 223.807 134.498 224.49 135.67C225.173 136.841 226.149 137.817 227.418 138.402C228.687 139.086 230.053 139.378 231.615 139.378C232.884 139.378 234.055 139.183 235.129 138.695C236.202 138.207 237.178 137.622 237.959 136.646L239.521 138.402C238.643 139.476 237.471 140.355 236.105 140.94C234.738 141.526 233.177 142.014 231.615 142.014Z" fill="#071E57"/>
    <path d="M254.942 142.014C253.185 142.014 251.721 141.721 250.355 141.038C249.086 140.355 248.012 139.379 247.329 138.11C246.646 136.841 246.255 135.182 246.255 133.23V121.322H248.988V132.937C248.988 135.084 249.574 136.743 250.648 137.914C251.721 138.988 253.283 139.574 255.235 139.574C256.699 139.574 257.87 139.281 258.944 138.695C260.018 138.11 260.798 137.231 261.384 136.158C261.97 135.084 262.262 133.718 262.262 132.156V121.419H264.995V141.916H262.36V136.255L262.75 137.231C262.067 138.695 261.091 139.964 259.725 140.745C258.358 141.526 256.699 142.014 254.942 142.014Z" fill="#071E57"/>
    <path d="M269.485 123.567V121.224H282.174V123.567H269.485ZM279.148 142.014C277.196 142.014 275.732 141.526 274.658 140.452C273.584 139.379 273.096 137.915 273.096 136.06V116.832H275.829V135.962C275.829 137.134 276.122 138.11 276.708 138.695C277.293 139.379 278.172 139.671 279.343 139.671C280.612 139.671 281.588 139.281 282.369 138.598L283.345 140.55C282.759 141.038 282.174 141.428 281.393 141.624C280.807 141.916 279.929 142.014 279.148 142.014Z" fill="#071E57"/>
    <path d="M288.519 141.819V121.323H291.154V126.886L290.861 125.91C291.447 124.348 292.423 123.177 293.789 122.299C295.156 121.42 296.815 121.03 298.865 121.03V123.763C298.767 123.763 298.67 123.763 298.572 123.763C298.474 123.763 298.377 123.763 298.279 123.763C296.132 123.763 294.375 124.446 293.204 125.715C291.935 126.984 291.349 128.936 291.349 131.278V141.722H288.519V141.819Z" fill="#071E57"/>
    <path d="M309.991 142.014C308.429 142.014 307.16 141.721 305.989 141.233C304.818 140.745 304.037 140.062 303.354 139.086C302.768 138.207 302.475 137.134 302.475 135.962C302.475 134.889 302.768 133.913 303.256 133.034C303.744 132.156 304.623 131.473 305.794 130.887C306.965 130.301 308.527 130.106 310.479 130.106H317.506V132.156H310.479C308.527 132.156 307.16 132.546 306.38 133.229C305.599 133.913 305.208 134.791 305.208 135.865C305.208 137.036 305.696 138.012 306.575 138.695C307.453 139.379 308.722 139.769 310.381 139.769C311.943 139.769 313.309 139.379 314.383 138.695C315.554 138.012 316.335 136.938 316.823 135.572L317.409 137.524C316.921 138.89 315.945 139.964 314.676 140.745C313.505 141.623 311.943 142.014 309.991 142.014ZM317.018 141.819V137.329L316.921 136.548V128.935C316.921 127.178 316.433 125.812 315.457 124.933C314.481 123.957 313.017 123.567 311.065 123.567C309.698 123.567 308.429 123.762 307.258 124.25C306.087 124.738 305.013 125.323 304.232 126.007L302.963 123.957C304.037 123.079 305.208 122.395 306.672 121.907C308.136 121.419 309.698 121.224 311.26 121.224C313.895 121.224 315.945 121.907 317.409 123.176C318.873 124.445 319.556 126.495 319.556 129.13V141.819H317.018Z" fill="#071E57"/>
    <path d="M327.267 141.819V112.831H330V141.819H327.267Z" fill="#071E57"/>
</svg>
