<svg width="302" height="361" viewBox="0 0 302 361" fill="none" xmlns="http://www.w3.org/2000/svg">
    <path d="M57.1279 339.526V337.056H59.7879C60.2439 337.056 60.6873 336.98 61.1179 336.828C61.5739 336.676 61.9793 336.473 62.3339 336.22C62.6886 335.941 62.9673 335.625 63.1699 335.27C63.3979 334.89 63.5119 334.497 63.5119 334.092C63.5119 333.104 63.1699 332.407 62.4859 332.002C61.8019 331.597 60.7759 331.394 59.4079 331.394C58.4199 331.394 57.5079 331.546 56.6719 331.85C55.8613 332.154 55.2279 332.445 54.7719 332.724L53.8979 330.368C54.6579 329.937 55.5446 329.557 56.5579 329.228C57.5966 328.899 58.8253 328.734 60.2439 328.734C64.4493 328.734 66.5519 330.292 66.5519 333.408C66.5519 334.295 66.2606 335.169 65.6779 336.03C65.1206 336.866 64.3099 337.461 63.2459 337.816V337.968C64.7406 338.247 65.7793 338.779 66.3619 339.564C66.9699 340.349 67.2739 341.388 67.2739 342.68C67.2739 343.491 67.1093 344.238 66.7799 344.922C66.4506 345.606 65.9566 346.201 65.2979 346.708C64.6393 347.215 63.8033 347.62 62.7899 347.924C61.8019 348.203 60.6493 348.342 59.3319 348.342C58.0399 348.342 56.9633 348.228 56.1019 348C55.2659 347.772 54.5059 347.493 53.8219 347.164L54.6959 344.656C55.2786 344.985 55.9753 345.239 56.7859 345.416C57.6219 345.593 58.5213 345.682 59.4839 345.682C61.0293 345.682 62.2073 345.416 63.0179 344.884C63.8286 344.352 64.2339 343.541 64.2339 342.452C64.2339 341.54 63.8539 340.831 63.0939 340.324C62.3339 339.792 61.0799 339.526 59.3319 339.526H57.1279ZM71.7734 330.406C72.736 329.823 73.8507 329.393 75.1174 329.114C76.4094 328.835 77.752 328.696 79.1454 328.696C80.4627 328.696 81.514 328.873 82.2994 329.228C83.11 329.583 83.718 330.051 84.1234 330.634C84.554 331.191 84.8327 331.812 84.9594 332.496C85.1114 333.18 85.1874 333.864 85.1874 334.548C85.1874 336.068 85.1494 337.55 85.0734 338.994C84.9974 340.438 84.9594 341.806 84.9594 343.098C84.9594 344.035 84.9974 344.922 85.0734 345.758C85.1494 346.594 85.2887 347.367 85.4914 348.076H83.2494L82.4514 345.416H82.2614C82.0334 345.771 81.742 346.125 81.3874 346.48C81.058 346.809 80.6527 347.113 80.1714 347.392C79.69 347.645 79.1327 347.861 78.4994 348.038C77.866 348.215 77.144 348.304 76.3334 348.304C75.5227 348.304 74.7627 348.177 74.0534 347.924C73.3694 347.671 72.774 347.316 72.2674 346.86C71.7607 346.379 71.3554 345.809 71.0514 345.15C70.7727 344.491 70.6334 343.744 70.6334 342.908C70.6334 341.793 70.8614 340.869 71.3174 340.134C71.7734 339.374 72.4067 338.779 73.2174 338.348C74.0534 337.892 75.0414 337.575 76.1814 337.398C77.3467 337.195 78.626 337.094 80.0194 337.094C80.374 337.094 80.716 337.094 81.0454 337.094C81.4 337.094 81.7547 337.119 82.1094 337.17C82.1854 336.41 82.2234 335.726 82.2234 335.118C82.2234 333.725 81.9447 332.749 81.3874 332.192C80.83 331.635 79.8167 331.356 78.3474 331.356C77.9167 331.356 77.448 331.394 76.9414 331.47C76.46 331.521 75.9534 331.609 75.4214 331.736C74.9147 331.837 74.4207 331.977 73.9394 332.154C73.4834 332.306 73.078 332.483 72.7234 332.686L71.7734 330.406ZM77.1694 345.644C77.8787 345.644 78.512 345.555 79.0694 345.378C79.6267 345.175 80.108 344.935 80.5134 344.656C80.9187 344.352 81.248 344.023 81.5014 343.668C81.78 343.313 81.9827 342.971 82.1094 342.642V339.488C81.7547 339.463 81.3874 339.45 81.0074 339.45C80.6527 339.425 80.298 339.412 79.9434 339.412C79.158 339.412 78.3854 339.463 77.6254 339.564C76.8907 339.64 76.232 339.805 75.6494 340.058C75.092 340.286 74.636 340.615 74.2814 341.046C73.952 341.451 73.7874 341.971 73.7874 342.604C73.7874 343.491 74.104 344.225 74.7374 344.808C75.3707 345.365 76.1814 345.644 77.1694 345.644ZM102.367 331.66H93.9689V348H90.9289V329H105.407V348H102.367V331.66ZM111.265 329H113.355L113.925 331.28H114.077C114.66 330.393 115.407 329.722 116.319 329.266C117.256 328.785 118.32 328.544 119.511 328.544C122.044 328.544 123.932 329.291 125.173 330.786C126.414 332.281 127.035 334.725 127.035 338.12C127.035 339.716 126.82 341.16 126.389 342.452C125.984 343.719 125.401 344.795 124.641 345.682C123.881 346.569 122.956 347.253 121.867 347.734C120.803 348.215 119.612 348.456 118.295 348.456C117.358 348.456 116.61 348.393 116.053 348.266C115.521 348.165 114.938 347.975 114.305 347.696V355.6H111.265V329ZM118.941 331.204C117.649 331.204 116.623 331.546 115.863 332.23C115.128 332.889 114.609 333.902 114.305 335.27V344.694C114.761 345.049 115.28 345.327 115.863 345.53C116.446 345.707 117.218 345.796 118.181 345.796C119.929 345.796 121.31 345.15 122.323 343.858C123.362 342.541 123.881 340.615 123.881 338.082C123.881 337.043 123.792 336.106 123.615 335.27C123.438 334.409 123.146 333.687 122.741 333.104C122.361 332.496 121.854 332.027 121.221 331.698C120.613 331.369 119.853 331.204 118.941 331.204ZM145.693 346.48C144.933 347.088 143.971 347.569 142.805 347.924C141.665 348.279 140.449 348.456 139.157 348.456C137.713 348.456 136.459 348.228 135.395 347.772C134.331 347.291 133.457 346.619 132.773 345.758C132.089 344.871 131.583 343.82 131.253 342.604C130.924 341.388 130.759 340.02 130.759 338.5C130.759 335.257 131.481 332.787 132.925 331.09C134.369 329.393 136.434 328.544 139.119 328.544C139.981 328.544 140.842 328.645 141.703 328.848C142.565 329.025 143.337 329.38 144.021 329.912C144.705 330.444 145.263 331.204 145.693 332.192C146.124 333.155 146.339 334.434 146.339 336.03C146.339 336.866 146.263 337.791 146.111 338.804H133.913C133.913 339.919 134.027 340.907 134.255 341.768C134.483 342.629 134.838 343.364 135.319 343.972C135.801 344.555 136.421 345.011 137.181 345.34C137.967 345.644 138.917 345.796 140.031 345.796C140.893 345.796 141.754 345.644 142.615 345.34C143.477 345.036 144.123 344.681 144.553 344.276L145.693 346.48ZM139.157 331.204C137.663 331.204 136.459 331.597 135.547 332.382C134.661 333.167 134.129 334.51 133.951 336.41H143.375C143.375 334.485 143.008 333.142 142.273 332.382C141.539 331.597 140.5 331.204 139.157 331.204ZM175.972 352.94H173.92L173.35 348H151.12V329H154.16V345.34H160.658V329H163.698V345.34H170.196V329H173.236V345.34H175.972V352.94ZM193.602 346.48C192.842 347.088 191.879 347.569 190.714 347.924C189.574 348.279 188.358 348.456 187.066 348.456C185.622 348.456 184.368 348.228 183.304 347.772C182.24 347.291 181.366 346.619 180.682 345.758C179.998 344.871 179.491 343.82 179.162 342.604C178.832 341.388 178.668 340.02 178.668 338.5C178.668 335.257 179.39 332.787 180.834 331.09C182.278 329.393 184.342 328.544 187.028 328.544C187.889 328.544 188.75 328.645 189.612 328.848C190.473 329.025 191.246 329.38 191.93 329.912C192.614 330.444 193.171 331.204 193.602 332.192C194.032 333.155 194.248 334.434 194.248 336.03C194.248 336.866 194.172 337.791 194.02 338.804H181.822C181.822 339.919 181.936 340.907 182.164 341.768C182.392 342.629 182.746 343.364 183.228 343.972C183.709 344.555 184.33 345.011 185.09 345.34C185.875 345.644 186.825 345.796 187.94 345.796C188.801 345.796 189.662 345.644 190.524 345.34C191.385 345.036 192.031 344.681 192.462 344.276L193.602 346.48ZM187.066 331.204C185.571 331.204 184.368 331.597 183.456 332.382C182.569 333.167 182.037 334.51 181.86 336.41H191.284C191.284 334.485 190.916 333.142 190.182 332.382C189.447 331.597 188.408 331.204 187.066 331.204ZM210.657 339.602H202.069V348H199.029V329H202.069V336.942H210.657V329H213.697V348H210.657V339.602ZM224.338 339.45H222.59V348H219.55V329H222.59V337.588L224.224 337.056L230.304 329H233.61L227.72 336.638L226.124 337.892L228.1 339.412L234.446 348H230.684L224.338 339.45ZM237.393 330.406C238.355 329.823 239.47 329.393 240.737 329.114C242.029 328.835 243.371 328.696 244.765 328.696C246.082 328.696 247.133 328.873 247.919 329.228C248.729 329.583 249.337 330.051 249.743 330.634C250.173 331.191 250.452 331.812 250.579 332.496C250.731 333.18 250.807 333.864 250.807 334.548C250.807 336.068 250.769 337.55 250.693 338.994C250.617 340.438 250.579 341.806 250.579 343.098C250.579 344.035 250.617 344.922 250.693 345.758C250.769 346.594 250.908 347.367 251.111 348.076H248.869L248.071 345.416H247.881C247.653 345.771 247.361 346.125 247.007 346.48C246.677 346.809 246.272 347.113 245.791 347.392C245.309 347.645 244.752 347.861 244.119 348.038C243.485 348.215 242.763 348.304 241.953 348.304C241.142 348.304 240.382 348.177 239.673 347.924C238.989 347.671 238.393 347.316 237.887 346.86C237.38 346.379 236.975 345.809 236.671 345.15C236.392 344.491 236.253 343.744 236.253 342.908C236.253 341.793 236.481 340.869 236.937 340.134C237.393 339.374 238.026 338.779 238.837 338.348C239.673 337.892 240.661 337.575 241.801 337.398C242.966 337.195 244.245 337.094 245.639 337.094C245.993 337.094 246.335 337.094 246.665 337.094C247.019 337.094 247.374 337.119 247.729 337.17C247.805 336.41 247.843 335.726 247.843 335.118C247.843 333.725 247.564 332.749 247.007 332.192C246.449 331.635 245.436 331.356 243.967 331.356C243.536 331.356 243.067 331.394 242.561 331.47C242.079 331.521 241.573 331.609 241.041 331.736C240.534 331.837 240.04 331.977 239.559 332.154C239.103 332.306 238.697 332.483 238.343 332.686L237.393 330.406ZM242.789 345.644C243.498 345.644 244.131 345.555 244.689 345.378C245.246 345.175 245.727 344.935 246.133 344.656C246.538 344.352 246.867 344.023 247.121 343.668C247.399 343.313 247.602 342.971 247.729 342.642V339.488C247.374 339.463 247.007 339.45 246.627 339.45C246.272 339.425 245.917 339.412 245.563 339.412C244.777 339.412 244.005 339.463 243.245 339.564C242.51 339.64 241.851 339.805 241.269 340.058C240.711 340.286 240.255 340.615 239.901 341.046C239.571 341.451 239.407 341.971 239.407 342.604C239.407 343.491 239.723 344.225 240.357 344.808C240.99 345.365 241.801 345.644 242.789 345.644Z" fill="#3D3D3D"/>
    <g filter="url(#filter0_d_112_58)">
        <rect x="26" y="50" width="249.714" height="249.714" fill="#071E57"/>
    </g>
    <path d="M131.991 109.263L143.171 128.045L151.22 153.087L160.611 127.598L171.343 109.71L192.808 121.337L181.181 140.566L160.611 162.031L191.019 156.665H212.484V181.707H191.914L163.294 176.341L183.865 197.806L194.15 215.246L173.132 227.767L161.505 208.985L151.22 181.707L142.724 207.644L131.544 226.425L109.185 213.904L121.259 195.123L140.04 176.341L114.104 181.707H91.7446V156.665H114.104L141.829 162.031L121.706 142.355L110.079 121.784L131.991 109.263Z" fill="#EDE9E3"/>
    <defs>
        <filter id="filter0_d_112_58" x="0.477732" y="28.15" width="300.759" height="300.759" filterUnits="userSpaceOnUse" color-interpolation-filters="sRGB">
            <feFlood flood-opacity="0" result="BackgroundImageFix"/>
            <feColorMatrix in="SourceAlpha" type="matrix" values="0 0 0 0 0 0 0 0 0 0 0 0 0 0 0 0 0 0 127 0" result="hardAlpha"/>
            <feOffset dy="3.67227"/>
            <feGaussianBlur stdDeviation="12.7611"/>
            <feComposite in2="hardAlpha" operator="out"/>
            <feColorMatrix type="matrix" values="0 0 0 0 0 0 0 0 0 0 0 0 0 0 0 0 0 0 0.18 0"/>
            <feBlend mode="normal" in2="BackgroundImageFix" result="effect1_dropShadow_112_58"/>
            <feBlend mode="normal" in="SourceGraphic" in2="effect1_dropShadow_112_58" result="shape"/>
        </filter>
    </defs>
</svg>
