<svg width="330" height="166" viewBox="0 0 330 166" fill="none" xmlns="http://www.w3.org/2000/svg">
    <path d="M0 146.309V44.6053L22.8394 48.9V151.677L0 146.309ZM20.5945 128.447L19.3256 95.6524L54.5608 54.9514L79.9379 59.734L44.9956 101.313L32.0142 115.564L20.5945 128.447ZM54.8536 159.193L28.11 110.391L43.2387 93.2123L81.7924 165.439L54.8536 159.193Z" fill="#EDE9E3"/>
    <path d="M89.2104 164.073V60.0268L107.658 53.3897L151.677 109.024L142.893 111.855L142.405 40.8963L164.268 32.9904L165.244 140.55L146.602 146.309L102.289 90.1864L110.976 87.1607L111.171 157.045L89.2104 164.073Z" fill="#EDE9E3"/>
    <path d="M0.975586 34.0639L102.289 0L143.38 10.0532C154.117 12.6885 159.582 15.4215 159.875 18.1544C160.168 20.8873 156.459 23.425 148.748 25.7675C143.575 27.3292 137.914 28.4028 131.863 29.1836C125.714 29.8669 119.565 30.1597 113.416 29.9645C107.169 29.7693 101.41 29.0861 95.9445 27.9148L105.119 26.2556C110.78 27.5244 114.587 28.8908 116.734 30.5501C118.882 32.1118 118.979 33.7711 117.222 35.5279C115.465 37.2848 111.659 38.9441 105.9 40.7009C97.2134 43.2387 87.6481 44.7028 77.0093 45.0932C66.3704 45.4836 55.634 44.6051 44.6047 42.5555L0.975586 34.0639ZM44.3119 31.7214L63.5399 35.6256C67.5417 36.4064 71.4459 36.7968 75.1548 36.6992C78.8638 36.6016 82.4751 36.016 85.8913 34.9423C89.3074 33.8687 90.9667 32.8926 90.5763 31.9165C90.2835 30.9405 88.0386 30.0621 84.0368 29.1836L63.1495 24.7915L82.9632 18.3496L100.337 22.2538C104.241 23.1322 107.852 23.5226 111.464 23.425C114.977 23.3274 118.393 22.8394 121.614 21.8633C124.933 20.7897 126.495 19.8137 126.202 18.8376C125.909 17.8616 123.762 16.9832 119.955 16.1047L104.241 12.3957L44.3119 31.7214Z" fill="#EDE9E3"/>
    <path d="M191.695 60.5148V33.1857H194.623V60.5148H191.695ZM194.233 53.6825L194.135 50.1688L210.728 33.1857H214.046L201.943 45.8742L200.284 47.6311L194.233 53.6825ZM211.313 60.5148L199.503 46.9478L201.455 44.8005L214.729 60.5148H211.313Z" fill="#EDE9E3"/>
    <path d="M227.613 60.7101C225.466 60.7101 223.611 60.222 221.952 59.3436C220.293 58.4652 219.121 57.1963 218.145 55.6346C217.267 54.0729 216.779 52.2185 216.779 50.2664C216.779 48.2167 217.169 46.4598 218.048 44.8981C218.926 43.3365 220.097 42.0676 221.659 41.1892C223.221 40.3108 224.88 39.8228 226.832 39.8228C228.784 39.8228 230.443 40.2131 232.005 41.0916C233.567 41.97 234.64 43.1412 235.519 44.8005C236.397 46.3622 236.788 48.2167 236.788 50.2664C236.788 50.364 236.788 50.5592 236.788 50.6568C236.788 50.7544 236.788 50.9496 236.788 51.1448H218.926V49.0951H235.324L234.25 49.876C234.25 48.4119 233.957 47.0454 233.274 45.8742C232.591 44.7029 231.81 43.8245 230.639 43.1413C229.565 42.458 228.296 42.1652 226.832 42.1652C225.466 42.1652 224.197 42.458 223.025 43.1413C221.952 43.8245 221.073 44.7029 220.39 45.8742C219.707 47.0454 219.414 48.4119 219.414 49.876V50.2664C219.414 51.8281 219.805 53.1945 220.488 54.3658C221.171 55.537 222.147 56.513 223.416 57.0987C224.685 57.7819 226.051 58.0747 227.613 58.0747C228.882 58.0747 230.053 57.8795 231.127 57.3915C232.2 56.9034 233.176 56.3178 233.957 55.3418L235.519 57.0987C234.64 58.1723 233.469 59.0508 232.103 59.6364C230.736 60.222 229.272 60.7101 227.613 60.7101Z" fill="#EDE9E3"/>
    <path d="M242.644 68.2257C241.668 68.2257 240.789 68.0305 239.911 67.7377C239.033 67.4449 238.252 66.9569 237.666 66.3713L238.935 64.3215C239.423 64.8095 240.009 65.2 240.594 65.4928C241.18 65.7856 241.863 65.8832 242.644 65.8832C243.522 65.8832 244.303 65.5904 244.986 65.1024C245.67 64.6143 246.255 63.7359 246.841 62.4671L248.207 59.4413L248.5 59.0509L256.894 40.0181H259.627L249.379 62.955C248.793 64.3215 248.207 65.2975 247.524 66.0784C246.841 66.8592 246.06 67.4449 245.279 67.7377C244.498 68.1281 243.62 68.2257 242.644 68.2257ZM248.11 61.1006L238.642 40.0181H241.57L249.964 58.8557L248.11 61.1006Z" fill="#EDE9E3"/>
    <path d="M191.695 101.996V74.6668H203.505C206.531 74.6668 208.873 75.2524 210.63 76.5212C212.289 77.6925 213.168 79.4494 213.168 81.6943C213.168 83.1584 212.777 84.4272 212.094 85.4033C211.411 86.3793 210.435 87.1601 209.264 87.7457C208.092 88.2338 206.823 88.5266 205.359 88.5266L206.043 87.5506C207.8 87.5506 209.264 87.8434 210.532 88.3314C211.801 88.8194 212.777 89.6979 213.461 90.6739C214.144 91.6499 214.534 93.0164 214.534 94.5781C214.534 96.9206 213.656 98.6774 211.997 99.9463C210.337 101.215 207.702 101.898 204.286 101.898H191.695V101.996ZM194.623 99.5558H204.286C206.726 99.5558 208.483 99.1655 209.752 98.287C211.02 97.5062 211.704 96.1397 211.704 94.3828C211.704 92.626 211.02 91.3571 209.752 90.4786C208.483 89.6978 206.628 89.2098 204.286 89.2098H194.33V86.8673H203.31C205.457 86.8673 207.214 86.4769 208.385 85.5984C209.556 84.72 210.24 83.5488 210.24 81.8895C210.24 80.2302 209.654 78.9614 208.385 78.1806C207.116 77.3997 205.457 76.9117 203.31 76.9117H194.623V99.5558Z" fill="#EDE9E3"/>
    <path d="M226.345 102.191C224.783 102.191 223.514 101.898 222.343 101.41C221.172 100.922 220.391 100.239 219.708 99.2631C219.122 98.3847 218.829 97.3111 218.829 96.1398C218.829 95.0662 219.122 94.0902 219.61 93.2117C220.098 92.3333 220.976 91.65 222.148 91.0644C223.319 90.4788 224.881 90.2836 226.833 90.2836H233.86V92.3333H226.833C224.881 92.3333 223.514 92.7237 222.733 93.4069C221.952 94.0901 221.562 94.9685 221.562 96.0422C221.562 97.2134 222.05 98.1895 222.928 98.8727C223.807 99.5559 225.076 99.9464 226.735 99.9464C228.297 99.9464 229.663 99.5559 230.737 98.8727C231.908 98.1895 232.689 97.1158 233.177 95.7494L233.763 97.7015C233.275 99.068 232.298 100.142 231.03 100.922C229.956 101.801 228.297 102.191 226.345 102.191ZM233.372 101.996V97.5063L233.275 96.7254V89.1123C233.275 87.3554 232.787 85.989 231.81 85.1106C230.834 84.1345 229.37 83.7441 227.418 83.7441C226.052 83.7441 224.783 83.9393 223.612 84.4273C222.441 84.9154 221.367 85.501 220.586 86.1842L219.317 84.1345C220.391 83.2561 221.562 82.5728 223.026 82.0848C224.49 81.5968 226.052 81.4016 227.613 81.4016C230.249 81.4016 232.298 82.0848 233.763 83.3537C235.227 84.6225 235.91 86.6722 235.91 89.3075V101.996H233.372Z" fill="#EDE9E3"/>
    <path d="M249.086 102.191C247.427 102.191 245.768 101.996 244.304 101.508C242.84 101.02 241.571 100.434 240.79 99.6536L242.059 97.5063C242.937 98.0919 243.913 98.6775 245.28 99.1655C246.549 99.6535 247.915 99.8487 249.379 99.8487C251.331 99.8487 252.698 99.556 253.576 98.9703C254.455 98.3847 254.845 97.5063 254.845 96.5302C254.845 95.7494 254.65 95.1638 254.162 94.7734C253.674 94.3829 253.088 93.9925 252.307 93.7973C251.527 93.6021 250.648 93.4069 249.672 93.2117C248.696 93.0165 247.72 92.9189 246.842 92.6261C245.865 92.4308 244.987 92.1381 244.206 91.7477C243.425 91.3572 242.742 90.7716 242.352 90.0883C241.864 89.4051 241.669 88.4291 241.669 87.2579C241.669 86.1842 241.961 85.1105 242.645 84.2321C243.23 83.3536 244.206 82.6704 245.377 82.1824C246.549 81.6944 248.11 81.4016 249.77 81.4016C251.136 81.4016 252.405 81.5968 253.771 81.8896C255.138 82.28 256.211 82.6704 257.09 83.2561L255.919 85.501C255.04 84.9154 254.064 84.4273 252.991 84.1345C251.917 83.8417 250.941 83.7441 249.867 83.7441C248.013 83.7441 246.646 84.0369 245.768 84.7201C244.889 85.4034 244.499 86.1842 244.499 87.1602C244.499 87.9411 244.694 88.5267 245.182 89.0147C245.67 89.5028 246.256 89.7955 247.134 90.0883C248.013 90.3811 248.794 90.5764 249.77 90.674C250.746 90.8692 251.624 91.0644 252.6 91.2596C253.576 91.4548 254.455 91.7477 255.235 92.1381C256.016 92.5285 256.7 93.0165 257.188 93.6997C257.676 94.3829 257.871 95.2614 257.871 96.4326C257.871 97.6039 257.578 98.6775 256.895 99.5559C256.212 100.434 255.235 101.118 253.967 101.606C252.405 101.898 250.941 102.191 249.086 102.191Z" fill="#EDE9E3"/>
    <path d="M264.019 76.9121C263.434 76.9121 262.946 76.7169 262.555 76.3265C262.165 75.936 261.97 75.448 261.97 74.96C261.97 74.472 262.165 73.984 262.555 73.5935C262.946 73.2031 263.434 73.0079 264.019 73.0079C264.605 73.0079 265.093 73.2031 265.483 73.5935C265.874 73.984 266.069 74.3744 266.069 74.96C266.069 75.5456 265.874 76.0337 265.483 76.4241C265.093 76.8145 264.703 76.9121 264.019 76.9121ZM262.653 101.996V81.4995H265.386V101.996H262.653Z" fill="#EDE9E3"/>
    <path d="M281.686 102.192C279.637 102.192 277.88 101.704 276.22 100.825C274.659 99.9469 273.39 98.678 272.414 97.1164C271.535 95.5547 271.047 93.7003 271.047 91.7482C271.047 89.6985 271.535 87.844 272.414 86.2823C273.292 84.7206 274.561 83.4518 276.22 82.5734C277.782 81.6949 279.637 81.2069 281.686 81.2069C283.443 81.2069 285.005 81.4997 286.371 82.1829C287.738 82.8662 288.909 83.8422 289.69 85.2086L287.64 86.5752C286.957 85.5015 286.078 84.7206 285.005 84.2326C283.931 83.7446 282.857 83.4518 281.589 83.4518C280.125 83.4518 278.856 83.7446 277.684 84.4279C276.513 85.1111 275.635 85.9895 274.952 87.2584C274.268 88.5273 273.976 89.8937 273.976 91.4554C273.976 93.1147 274.268 94.4811 274.952 95.6524C275.635 96.8236 276.513 97.7996 277.684 98.4828C278.856 99.1661 280.125 99.4589 281.589 99.4589C282.76 99.4589 283.931 99.1661 285.005 98.6781C286.078 98.1901 286.957 97.4092 287.64 96.4331L289.69 97.7996C288.909 99.1661 287.738 100.142 286.371 100.825C285.005 101.509 283.443 102.192 281.686 102.192Z" fill="#EDE9E3"/>
    <path d="M300.621 102.191C298.961 102.191 297.302 101.996 295.838 101.508C294.374 101.02 293.105 100.434 292.324 99.6536L293.593 97.5063C294.472 98.0919 295.448 98.6775 296.814 99.1655C298.083 99.6535 299.449 99.8487 300.913 99.8487C302.866 99.8487 304.232 99.556 305.11 98.9703C305.989 98.3847 306.379 97.5063 306.379 96.5302C306.379 95.7494 306.184 95.1638 305.696 94.7734C305.208 94.3829 304.622 93.9925 303.842 93.7973C303.061 93.6021 302.182 93.4069 301.206 93.2117C300.23 93.0165 299.254 92.9189 298.376 92.6261C297.4 92.4308 296.521 92.1381 295.74 91.7477C294.96 91.3572 294.276 90.7716 293.886 90.0883C293.398 89.4051 293.203 88.4291 293.203 87.2579C293.203 86.1842 293.495 85.1105 294.179 84.2321C294.764 83.3536 295.74 82.6704 296.912 82.1824C298.083 81.6944 299.645 81.4016 301.304 81.4016C302.67 81.4016 303.939 81.5968 305.306 81.8896C306.672 82.28 307.746 82.6704 308.624 83.2561L307.453 85.501C306.574 84.9154 305.598 84.4273 304.525 84.1345C303.451 83.8417 302.475 83.7441 301.401 83.7441C299.547 83.7441 298.18 84.0369 297.302 84.7201C296.424 85.4034 296.033 86.1842 296.033 87.1602C296.033 87.9411 296.228 88.5267 296.716 89.0147C297.204 89.5028 297.79 89.7955 298.669 90.0883C299.547 90.3811 300.328 90.5764 301.304 90.674C302.28 90.8692 303.158 91.0644 304.134 91.2596C305.11 91.4548 305.989 91.7477 306.77 92.1381C307.551 92.5285 308.234 93.0165 308.722 93.6997C309.21 94.3829 309.405 95.2614 309.405 96.4326C309.405 97.6039 309.112 98.6775 308.429 99.5559C307.746 100.434 306.77 101.118 305.501 101.606C303.939 101.898 302.475 102.191 300.621 102.191Z" fill="#EDE9E3"/>
    <path d="M191.695 141.819V114.49H194.037L212.875 138.207H211.606V114.49H214.437V141.819H212.094L193.257 118.101H194.525V141.819H191.695Z" fill="#EDE9E3"/>
    <path d="M231.615 142.014C229.468 142.014 227.613 141.526 225.954 140.647C224.295 139.769 223.123 138.5 222.147 136.938C221.269 135.377 220.781 133.522 220.781 131.57C220.781 129.521 221.171 127.764 222.05 126.202C222.928 124.64 224.099 123.372 225.661 122.493C227.223 121.615 228.882 121.127 230.834 121.127C232.786 121.127 234.445 121.517 236.007 122.395C237.569 123.274 238.642 124.445 239.521 126.104C240.399 127.666 240.79 129.521 240.79 131.57C240.79 131.668 240.79 131.863 240.79 131.961C240.79 132.058 240.79 132.254 240.79 132.449H222.928V130.399H239.326L238.252 131.18C238.252 129.716 237.959 128.349 237.276 127.178C236.593 126.007 235.812 125.128 234.641 124.445C233.567 123.762 232.298 123.469 230.834 123.469C229.468 123.469 228.199 123.762 227.027 124.445C225.954 125.128 225.075 126.007 224.392 127.178C223.709 128.349 223.416 129.716 223.416 131.18V131.57C223.416 133.132 223.806 134.498 224.49 135.67C225.173 136.841 226.149 137.817 227.418 138.403C228.687 139.086 230.053 139.379 231.615 139.379C232.884 139.379 234.055 139.183 235.129 138.695C236.202 138.207 237.178 137.622 237.959 136.646L239.521 138.403C238.642 139.476 237.471 140.355 236.105 140.94C234.738 141.526 233.177 142.014 231.615 142.014Z" fill="#EDE9E3"/>
    <path d="M254.942 142.014C253.185 142.014 251.721 141.721 250.355 141.038C249.086 140.355 248.012 139.379 247.329 138.11C246.646 136.841 246.255 135.182 246.255 133.23V121.322H248.988V132.937C248.988 135.084 249.574 136.743 250.648 137.915C251.721 138.988 253.283 139.574 255.235 139.574C256.699 139.574 257.87 139.281 258.944 138.695C260.018 138.11 260.798 137.231 261.384 136.158C261.97 135.084 262.262 133.718 262.262 132.156V121.42H264.995V141.916H262.36V136.255L262.75 137.231C262.067 138.695 261.091 139.964 259.725 140.745C258.358 141.526 256.699 142.014 254.942 142.014Z" fill="#EDE9E3"/>
    <path d="M269.485 123.567V121.224H282.173V123.567H269.485ZM279.148 142.014C277.196 142.014 275.732 141.526 274.658 140.452C273.584 139.379 273.096 137.915 273.096 136.06V116.832H275.829V135.962C275.829 137.134 276.122 138.11 276.708 138.695C277.293 139.379 278.172 139.671 279.343 139.671C280.612 139.671 281.588 139.281 282.369 138.598L283.345 140.55C282.759 141.038 282.173 141.428 281.393 141.624C280.807 141.916 279.928 142.014 279.148 142.014Z" fill="#EDE9E3"/>
    <path d="M288.519 141.819V121.322H291.154V126.886L290.861 125.91C291.447 124.348 292.423 123.177 293.789 122.298C295.156 121.42 296.815 121.03 298.865 121.03V123.762C298.767 123.762 298.669 123.762 298.572 123.762C298.474 123.762 298.377 123.762 298.279 123.762C296.132 123.762 294.375 124.446 293.204 125.715C291.935 126.983 291.349 128.935 291.349 131.278V141.722H288.519V141.819Z" fill="#EDE9E3"/>
    <path d="M309.991 142.014C308.429 142.014 307.161 141.721 305.989 141.233C304.818 140.745 304.037 140.062 303.354 139.086C302.768 138.207 302.476 137.134 302.476 135.963C302.476 134.889 302.768 133.913 303.256 133.034C303.744 132.156 304.623 131.473 305.794 130.887C306.965 130.301 308.527 130.106 310.479 130.106H317.507V132.156H310.479C308.527 132.156 307.161 132.546 306.38 133.23C305.599 133.913 305.208 134.791 305.208 135.865C305.208 137.036 305.697 138.012 306.575 138.695C307.453 139.379 308.722 139.769 310.382 139.769C311.943 139.769 313.31 139.379 314.383 138.695C315.555 138.012 316.335 136.939 316.823 135.572L317.409 137.524C316.921 138.891 315.945 139.964 314.676 140.745C313.505 141.624 311.943 142.014 309.991 142.014ZM317.019 141.819V137.329L316.921 136.548V128.935C316.921 127.178 316.433 125.812 315.457 124.933C314.481 123.957 313.017 123.567 311.065 123.567C309.698 123.567 308.429 123.762 307.258 124.25C306.087 124.738 305.013 125.324 304.232 126.007L302.964 123.957C304.037 123.079 305.209 122.395 306.673 121.907C308.137 121.419 309.698 121.224 311.26 121.224C313.895 121.224 315.945 121.908 317.409 123.176C318.873 124.445 319.556 126.495 319.556 129.13V141.819H317.019Z" fill="#EDE9E3"/>
    <path d="M327.267 141.819V112.831H330V141.819H327.267Z" fill="#EDE9E3"/>
</svg>
