<svg width="30" height="30" viewBox="0 0 30 30" fill="none" xmlns="http://www.w3.org/2000/svg">
    <path d="M19.728 7.512H21.968L20.432 16.184C20.2613 17.1867 20.2507 17.912 20.4 18.36C20.5707 18.808 20.9333 19.032 21.488 19.032C22.0427 19.032 22.5867 18.904 23.12 18.648C23.6533 18.392 24.1333 17.9973 24.56 17.464C24.9867 16.9307 25.328 16.2587 25.584 15.448C25.8613 14.6373 26 13.6773 26 12.568C26 10.968 25.7333 9.60267 25.2 8.472C24.6667 7.34133 23.9307 6.41333 22.992 5.688C22.0747 4.94133 20.9867 4.39733 19.728 4.056C18.4693 3.71467 17.1147 3.544 15.664 3.544C14 3.544 12.4533 3.84267 11.024 4.44C9.59467 5.03733 8.34667 5.85867 7.28 6.904C6.23467 7.94933 5.41333 9.19733 4.816 10.648C4.21867 12.0773 3.92 13.6347 3.92 15.32C3.92 16.984 4.16533 18.4773 4.656 19.8C5.168 21.1227 5.904 22.2427 6.864 23.16C7.824 24.0987 9.008 24.8133 10.416 25.304C11.8453 25.816 13.4773 26.072 15.312 26.072C15.9307 26.072 16.6347 25.9973 17.424 25.848C18.2133 25.6987 18.928 25.4747 19.568 25.176L20.56 28.248C19.6853 28.6747 18.7893 28.9733 17.872 29.144C16.976 29.3147 15.9413 29.4 14.768 29.4C12.6987 29.4 10.7787 29.1013 9.008 28.504C7.25867 27.9067 5.73333 27.0213 4.432 25.848C3.152 24.6747 2.14933 23.224 1.424 21.496C0.698667 19.7467 0.336 17.7307 0.336 15.448C0.336 13.1227 0.752 11.0213 1.584 9.144C2.416 7.26667 3.536 5.66667 4.944 4.344C6.352 3.02133 7.984 2.008 9.84 1.304C11.696 0.578666 13.6587 0.216 15.728 0.216C17.6907 0.216 19.5147 0.503999 21.2 1.08C22.8853 1.63467 24.3467 2.44533 25.584 3.512C26.8213 4.55733 27.792 5.848 28.496 7.384C29.2 8.89867 29.552 10.6267 29.552 12.568C29.552 13.9333 29.3067 15.2133 28.816 16.408C28.3467 17.6027 27.6853 18.6373 26.832 19.512C26 20.3867 25.0187 21.08 23.888 21.592C22.7787 22.104 21.584 22.36 20.304 22.36C19.7707 22.36 19.2693 22.3067 18.8 22.2C18.352 22.072 17.968 21.8693 17.648 21.592C17.3493 21.3147 17.1253 20.952 16.976 20.504C16.8267 20.056 16.784 19.5013 16.848 18.84H16.72C16.4 19.288 16.048 19.7253 15.664 20.152C15.3013 20.5787 14.896 20.9627 14.448 21.304C14 21.624 13.5093 21.88 12.976 22.072C12.4427 22.264 11.856 22.36 11.216 22.36C10.704 22.36 10.2133 22.2533 9.744 22.04C9.27467 21.8053 8.86933 21.4853 8.528 21.08C8.18667 20.6747 7.90933 20.184 7.696 19.608C7.504 19.032 7.408 18.392 7.408 17.688C7.408 16.3653 7.62133 15.0853 8.048 13.848C8.47467 12.5893 9.05067 11.48 9.776 10.52C10.5227 9.56 11.376 8.792 12.336 8.216C13.3173 7.61867 14.352 7.32 15.44 7.32C16.1867 7.32 16.816 7.43733 17.328 7.672C17.84 7.88533 18.3093 8.17333 18.736 8.536L19.728 7.512ZM17.712 11.384C17.4347 11.1493 17.1467 10.968 16.848 10.84C16.5493 10.712 16.176 10.648 15.728 10.648C15.088 10.648 14.4907 10.8293 13.936 11.192C13.4027 11.5547 12.9333 12.024 12.528 12.6C12.144 13.176 11.8453 13.8267 11.632 14.552C11.4187 15.256 11.312 15.9493 11.312 16.632C11.312 17.336 11.4507 17.912 11.728 18.36C12.0267 18.808 12.528 19.032 13.232 19.032C13.5307 19.032 13.8507 18.9467 14.192 18.776C14.5333 18.584 14.864 18.3387 15.184 18.04C15.504 17.7413 15.8133 17.4 16.112 17.016C16.4107 16.632 16.6773 16.2267 16.912 15.8L17.712 11.384Z" fill="#EDE9E3"/>
</svg>
